<svg xmlns="http://www.w3.org/2000/svg"  viewBox="0 0 250 250" style="enable-background:new 0 0 250 250;" ><title>csis_logo_social</title> <g><path fill="#005581" d="M191.4,165.1h-1.1c-0.2,0-0.3,0.2-0.3,0.3v4.1v3.6c0,0.6,0.5,0.9,1.3,0.9c2.5,0,2.8-3,2.8-4.9 C194.1,166.2,192.7,165.1,191.4,165.1z"/> <path fill="#005581" d="M135.5,167.2l-1.4,3.9c0,0.2,0,0.2,0.2,0.2h2.7c0.2,0,0.2-0.2,0.2-0.2l-1.4-3.9 C135.7,167,135.5,167,135.5,167.2z"/> <path fill="#005581" d="M87.8,167.2l-1.4,3.9c0,0.2,0,0.2,0.2,0.2h2.7c0.2,0,0.2-0.2,0.2-0.2l-1.4-3.9C88,167,87.8,167,87.8,167.2z"/> <path fill="#005581" d="M151.9,144.9h-1.1c-0.2,0-0.5,0.2-0.5,0.5v3.5c0,0.2,0.2,0.3,0.3,0.3h0.6c1.6,0,2.5-0.6,2.5-2.2 C153.6,145.7,152.8,144.9,151.9,144.9z"/> <path fill="#005581" d="M65.8,165.1h-1.1c-0.2,0-0.5,0.2-0.5,0.5v3.5c0,0.2,0.2,0.3,0.3,0.3h0.6c1.6,0,2.5-0.6,2.5-2.2 C67.7,165.9,66.9,165.1,65.8,165.1z"/> <path fill="#005581" d="M80.1,144.9H79c-0.2,0-0.5,0.2-0.5,0.5v3.5c0,0.2,0.2,0.3,0.3,0.3h0.6c1.6,0,2.5-0.6,2.5-2.2 C82,145.7,81.2,144.9,80.1,144.9z"/> <path fill="#005581" d="M162.9,146.9l-1.4,3.9c0,0.2,0,0.2,0.2,0.2h2.7c0.2,0,0.2-0.2,0.2-0.2l-1.4-3.9 C163,146.8,162.9,146.8,162.9,146.9z"/> <path fill="#005581" d="M105.2,144.7c-2,0-2.4,2.5-2.4,4.6c0,1.9,0.2,5,2.5,5c2,0,2.4-2.5,2.4-4.6 C107.8,147.7,107.6,144.7,105.2,144.7z"/> <path fill="#005581" d="M0,0v250h250V0H0z M146.8,110.1c5.2-1.2,5.5-2.7,5.8-7.3c0.3-3.6,0.6-14,0.6-22.5c0-6.1,0-18.5-0.3-21.9 c-0.3-4.6-0.3-6.1-5.8-7c-2.1-0.3-2.7-1.2-2.7-1.8c0-0.9,1.2-1.2,2.4-1.2c2.7,0,7.6,0.3,10.9,0.3c4.9,0,7.3-0.3,10.6-0.3 c1.5,0,2.4,0.3,2.4,1.2s-0.9,1.5-2.7,1.8c-5.8,1.2-5.8,3.6-6.1,6.4c-0.6,3.3-0.6,9.7-0.6,29.5c0,5.5,0,11.9,0.3,14.9 c0.3,5.5,0.9,7.3,7.3,8.5c1.8,0.3,2.7,0.9,2.7,1.8c0,0.9-1.5,1.2-2.7,1.2c-5.2,0-12.2-0.6-14.9-0.6c-3,0-4,0.3-7.6,0.3 c-1.8,0-2.7-0.6-2.7-1.5C143.8,111.3,144.7,110.7,146.8,110.1z M128.2,146.8c0-1.7,1.3-2.8,3.1-2.8c1.6,0,2.8,0.3,3.6,0.3 c0.2,0,0.2,0.2,0.2,0.2l-0.3,1.1c0,0.2-0.2,0.2-0.3,0.2c-0.8-0.5-1.6-0.9-3.1-0.9c-0.8,0-1.6,0.5-1.6,1.4c0,2.8,5.8,1.4,5.8,5.8 c0.2,2-1.4,2.8-3.6,2.8c-1.6,0-2.7-0.3-3.6-0.8c-0.2,0-0.2-0.2-0.2-0.3l0.3-1.1c0-0.2,0.2-0.2,0.3,0c0.8,0.8,1.9,1.4,3.1,1.4 c0.9,0,2-0.8,2-1.7C134,149.6,128.2,150.7,128.2,146.8z M97.6,97.9c0.9,0,2.4,2.7,3.6,5.8c2.7,5.5,9.1,7.9,13.1,7.9 c7,0,12.2-4.9,12.2-12.2c0-4.3-2.1-8.8-12.5-15.5c-8.8-5.5-14.9-11.6-14.9-20.1c0-4.9,2.1-9.1,5.5-12.2c3-2.7,7.9-4.9,14.9-4.9 c5.2,0,10.3,1.5,12.2,1.8c0.6,0.3,1.2,1.8,1.2,1.8c0.3,1.8,0.9,7.6,0.9,8.2c0,1.8,0,2.7-0.6,2.7c-0.9,0-2.1-0.6-2.4-2.1 c-1.2-3.6-4-6.7-4.9-7.3c-1.8-1.5-4.3-2.4-7-2.4c-6.7,0-11.6,5.2-11.6,11.9c0,7,5.2,10.3,14,16.1c7.6,5.2,14,10.3,14,19.5 c0,5.2-2.7,10.6-8.2,14.3c-3.3,2.1-9.1,3.6-13.7,3.6c-3.3,0-10-1.2-13.1-2.7c-0.9-0.6-2.4-2.7-2.4-3.3c-0.9-3.3-1.8-7.6-1.8-9.1 C96.1,99.4,97,97.9,97.6,97.9z M92.5,149.4v-5c0-0.2,0-0.2,0.2-0.2h6.1c0.2,0,0.3,0,0.3,0.2v0.8c0,0.2-0.2,0.2-0.3,0.2 c0,0-2-0.3-2.7-0.3h-1.3c-0.2,0-0.5,0.2-0.5,0.5v3.1c0,0,0,0.2,0.2,0.2l3-0.2c0.2,0,0.2,0,0.2,0.2v0.8c0,0.2-0.2,0.2-0.2,0.2 l-3-0.2c0,0-0.2,0-0.2,0.2v4.7c0,0.2,0,0.2-0.2,0.2h-1.6c-0.2,0-0.2,0-0.2-0.2V149.4z M37.1,56.2c8.5-7,17.9-9.1,27.1-9.1 c3.6-0.3,8.2,0.3,12.2,1.2c2.7,0.3,6.1,1.8,7.6,1.8c0.6,0,1.5,0.6,1.5,3c0,2.1,0.6,6.4,0.6,8.8c0,2.1-0.6,3.3-1.5,3.3 c-0.6,0-1.2-1.2-1.5-2.7c-0.9-3.6-2.7-6.4-4.3-7.6c-5.5-4.3-10.6-5.2-16.1-5.2c-16.1,0-26.5,13.4-26.5,28.6 c0,6.7,1.2,12.2,3.6,16.4c5.5,11.6,17.3,16.1,25.5,16.1c1.8,0,6.7-0.3,10.9-2.7c4.6-2.4,7-5.5,9.4-9.7c1.2-2.1,1.8-2.7,2.1-2.7 c0.9,0,1.2,2.1,0.9,3.3c-0.3,2.4-2.7,7.9-4,10c-0.3,0.9-2.1,2.1-3,2.7c-1.5,0.6-9.7,2.7-18.2,2.7c-14.3,0-24.6-7-28.6-11.9 c-4.3-4-8.8-11.3-8.8-22.5C26.1,68.7,32.8,59.6,37.1,56.2z M69.3,148.8l3.1-0.2c0.2,0,0.2,0,0.2,0.2v0.8c0,0.2-0.2,0.2-0.2,0.2 l-3.1-0.2c0,0-0.2,0-0.2,0.2v3.6c0,0.2,0.2,0.5,0.5,0.5H71c0.9,0,3-0.3,3-0.3c0.2,0,0.3,0,0.3,0.2v0.9c-0.2,0-0.3,0-0.5,0h-6.4 c-0.2,0-0.2,0-0.2-0.2v-5v-5c0-0.2,0-0.2,0.2-0.2h6.3c0.2,0,0.3,0,0.3,0.2v0.8c0,0.2-0.2,0.2-0.3,0.2c0,0-1.9-0.3-2.7-0.3h-1.4 c-0.2,0-0.5,0.2-0.5,0.5v3.1C69.1,148.7,69.1,148.8,69.3,148.8z M47.6,154.3c0,0.2,0,0.3-0.2,0.3h-1.4c-0.2,0-0.2-0.2-0.2-0.3 l0.2-7.2v-2.5c0-0.2,0-0.2,0.2-0.2h0.9c0.2,0,0.3,0,0.3,0.2l4.9,6.8c0.2,0.2,0.3,0.2,0.3,0l-0.2-6.4c0-0.2,0-0.3,0.2-0.3h1.1 c0.2,0,0.2,0.2,0.2,0.3l0.2,6.9v2.8c0,0.3-0.9,0.3-0.9,0.2l-5.5-7.5c-0.2-0.2-0.2,0-0.2,0L47.6,154.3z M38.5,148.8l3.1-0.2 c0.2,0,0.2,0,0.2,0.2v0.8c0,0.2-0.2,0.2-0.2,0.2l-3.1-0.2c0,0-0.2,0-0.2,0.2v3.6c0,0.2,0.2,0.5,0.5,0.5h1.4c0.9,0,3-0.3,3-0.3 c0.2,0,0.3,0,0.3,0.2v0.9c-0.2,0-0.3,0-0.3,0h-6.6c-0.2,0-0.2,0-0.2-0.2v-5v-5c0-0.2,0-0.2,0.2-0.2h6.3c0.2,0,0.3,0,0.3,0.2v0.8 c0,0.2-0.2,0.2-0.3,0.2c0,0-1.9-0.3-2.7-0.3h-1.4c-0.2,0-0.5,0.2-0.5,0.5v3.1C38.4,148.7,38.4,148.8,38.5,148.8z M28.3,169.7v5 c0,0.2,0,0.2-0.2,0.2h-1.6c-0.2,0-0.2,0-0.2-0.2v-5v-5c0-0.2,0-0.2,0.2-0.2h1.6c0.2,0,0.2,0,0.2,0.2V169.7z M26.1,149.4 c0-3.3,2-5.2,4.6-5.2h3c0.2,0,0.2,0,0.2,0.2l-0.2,1.1c0,0.2-0.2,0.2-0.3,0.2c-0.9-0.3-1.3-0.5-2.8-0.5c-1.6,0-2.4,1.6-2.4,4.4 c0,3.5,1.4,4.4,3,4.4c0.8,0,1.6-0.5,2.2-1.1h0.2l0.5,0.5v0.2c-0.8,0.8-2,1.3-3.3,1.3C28.2,154.8,26.1,153.4,26.1,149.4z M39.6,172 v2.8c0,0.3-0.9,0.3-0.9,0.2l-5.5-7.5c-0.2-0.2-0.2,0-0.2,0l0.2,7.1c0,0.2,0,0.3-0.2,0.3h-1.3c-0.2,0-0.2-0.2-0.2-0.3l0.2-7.4v-2.5 c0-0.2,0-0.2,0.2-0.2h0.9c0.2,0,0.3,0,0.3,0.2l4.9,6.8c0.2,0.2,0.3,0.2,0.3,0l-0.2-6.4c0-0.2,0-0.3,0.2-0.3h1.1 c0.2,0,0.2,0.2,0.2,0.3V172z M50.5,165.5c0,0.2-0.2,0.2-0.2,0.2s-1.7-0.2-2.7-0.2c-0.2,0-0.3,0.2-0.3,0.3v4.1v5 c0,0.2,0,0.2-0.2,0.2h-1.6c-0.2,0-0.2,0-0.2-0.2v-5v-4.1c0-0.2-0.2-0.3-0.3-0.3c-0.9,0-2.7,0.2-2.7,0.2c-0.2,0-0.2,0-0.2-0.2v-0.8 c0-0.2,0.2-0.2,0.3-0.2h7.7c0.2,0,0.3,0,0.3,0.2L50.5,165.5z M60,174.9c-0.3,0-0.3,0-0.5,0h-6.4c-0.2,0-0.2,0-0.2-0.2v-5v-5 c0-0.2,0-0.2,0.2-0.2h6.3c0.2,0,0.3,0,0.3,0.2v0.8c0,0.2-0.2,0.2-0.3,0.2c0,0-1.9-0.3-2.7-0.3h-1.4c-0.2,0-0.5,0.2-0.5,0.5v3.1 c0,0,0,0.2,0.2,0.2l3.1-0.2c0.2,0,0.2,0,0.2,0.2v0.8c0,0.2-0.2,0.2-0.2,0.2l-3.1-0.2c0,0-0.2,0-0.2,0.2v3.6c0,0.2,0.2,0.5,0.5,0.5 h1.4c0.9,0,3-0.3,3-0.3c0.2,0,0.3,0,0.3,0.2V174.9z M61.6,145.5v4.1v5c0,0.2,0,0.2-0.2,0.2h-1.6c-0.2,0-0.2,0-0.2-0.2v-5v-4.1 c0-0.2-0.2-0.3-0.3-0.3c-0.9,0-2.7,0.2-2.7,0.2c-0.2,0-0.2,0-0.2-0.2v-0.8c0-0.2,0.2-0.2,0.3-0.2h7.7c0.2,0,0.3,0,0.3,0.2l-0.2,0.8 c0,0.2-0.2,0.2-0.2,0.2s-1.7-0.2-2.7-0.2C61.8,145.2,61.6,145.4,61.6,145.5z M70.6,174.9h-1.9c-0.2,0-0.2-0.2-0.3-0.2l-2.2-3.9 c-0.3-0.5-0.6-0.6-0.9-0.6h-0.6c-0.2,0-0.3,0.2-0.3,0.3v4.4c0,0.2,0,0.2-0.2,0.2h-1.6c-0.2,0-0.2,0-0.2-0.2v-5v-5 c0-0.2,0-0.2,0.2-0.2h4.6c1.6,0,2.8,1.1,2.8,2.5c0,1.4-1.1,2.5-2.5,2.8c-0.2,0-0.2,0.2,0,0.2c0.2,0.2,0.3,0.3,0.6,0.8l2.4,3.3 l0.5,0.6C70.7,174.7,70.7,174.9,70.6,174.9z M81.2,172v2.8c0,0.3-0.9,0.3-0.9,0.2l-5.5-7.5c-0.2-0.2-0.2,0-0.2,0l0.2,7.1 c0,0.2,0,0.3-0.2,0.3h-1.3c-0.2,0-0.2-0.2-0.2-0.3l0.2-7.4v-2.5c0-0.2,0-0.2,0.2-0.2h0.9c0.2,0,0.3,0,0.3,0.2l4.9,6.8 c0.2,0.2,0.3,0.2,0.3,0l-0.2-6.4c0-0.2,0-0.3,0.2-0.3h1.1c0.2,0,0.2,0.2,0.2,0.3V172z M82.6,154.5l-2.2-3.9 c-0.3-0.5-0.6-0.6-0.9-0.6h-0.6c-0.2,0-0.3,0.2-0.3,0.3v4.4c0,0.2,0,0.2-0.2,0.2h-1.6c-0.2,0-0.2,0-0.2-0.2v-5v-5 c0-0.2,0-0.2,0.2-0.2h4.6c1.6,0,2.8,1.1,2.8,2.5c0,1.4-1.1,2.5-2.5,2.8c-0.2,0-0.2,0.2,0,0.2c0.2,0.2,0.3,0.3,0.6,0.8l2.4,3.3 l0.5,0.6c0,0-0.2,0-0.3,0H83C82.8,154.6,82.8,154.5,82.6,154.5z M93,174.9h-1.9c-0.2,0-0.3,0-0.3-0.2c0,0-0.3-0.8-0.5-1.3l-0.6-1.4 c0-0.2-0.2-0.2-0.2-0.2h-3.3c-0.2,0-0.2,0-0.2,0.2l-0.8,2.7c0,0.2-0.2,0.2-0.3,0.2h-1.3c-0.2,0-0.2-0.2-0.2-0.3l3.9-10 c0-0.2,1.3-0.2,1.3,0l3.6,8.9c0.2,0.5,0.6,1.1,0.6,1.1C93.2,174.9,93.2,174.9,93,174.9z M101.6,165.5c0,0.2-0.2,0.2-0.2,0.2 s-1.7-0.2-2.7-0.2c-0.2,0-0.3,0.2-0.3,0.3v4.1v5c0,0.2,0,0.2-0.2,0.2h-1.6c-0.2,0-0.2,0-0.2-0.2v-5v-4.1c0-0.2-0.2-0.3-0.3-0.3 c-0.9,0-2.7,0.2-2.7,0.2c-0.2,0-0.2,0-0.2-0.2v-0.8c0-0.2,0.2-0.2,0.3-0.2h7.7c0.2,0,0.3,0,0.3,0.2L101.6,165.5z M106,169.7v5 c0,0.2,0,0.2-0.2,0.2h-1.6c-0.2,0-0.2,0-0.2-0.2v-5v-5c0-0.2,0-0.2,0.2-0.2h1.6c0.2,0,0.2,0,0.2,0.2V169.7z M105.2,154.9 c-3.5,0-4.6-2.7-4.6-5.5s1.1-5.5,4.6-5.5c3.5,0,4.6,2.7,4.6,5.5C109.8,152.1,108.7,154.9,105.2,154.9z M113.4,175.2 c-3.5,0-4.6-2.7-4.6-5.5s1.1-5.5,4.6-5.5c3.5,0,4.6,2.7,4.6,5.5C118.1,172.4,117,175.2,113.4,175.2z M118.7,154.5l-2.2-3.9 c-0.3-0.5-0.6-0.6-0.9-0.6H115c-0.2,0-0.3,0.2-0.3,0.3v4.4c0,0.2,0,0.2-0.2,0.2h-1.6c-0.2,0-0.2,0-0.2-0.2v-5v-5 c0-0.2,0-0.2,0.2-0.2h4.6c1.6,0,2.8,1.1,2.8,2.5c0,1.4-1.1,2.5-2.5,2.8c-0.2,0-0.2,0.2,0,0.2c0.2,0.2,0.3,0.3,0.6,0.8l2.4,3.3 l0.5,0.6c0,0-0.2,0-0.3,0h-1.9C118.9,154.6,118.9,154.5,118.7,154.5z M129,172v2.8c0,0.3-0.9,0.3-0.9,0.2l-5.5-7.5 c-0.2-0.2-0.2,0-0.2,0l0.2,7.1c0,0.2,0,0.3-0.2,0.3h-1.3c-0.2,0-0.2-0.2-0.2-0.3l0.2-7.4v-2.5c0-0.2,0-0.2,0.2-0.2h0.9 c0.2,0,0.3,0,0.3,0.2l4.9,6.8c0.2,0.2,0.3,0.2,0.3,0l-0.2-6.4c0-0.2,0-0.3,0.2-0.3h1.1c0.2,0,0.2,0.2,0.2,0.3V172z M140.7,174.9 h-1.9c-0.2,0-0.3,0-0.3-0.2c0,0-0.3-0.8-0.5-1.3l-0.6-1.4c0-0.2-0.2-0.2-0.2-0.2H134c-0.2,0-0.2,0-0.2,0.2l-0.8,2.7 c0,0.2-0.2,0.2-0.3,0.2h-1.3c-0.2,0-0.2-0.2-0.2-0.3l3.9-10c0-0.2,1.3-0.2,1.3,0l3.6,8.9c0.2,0.5,0.6,1.1,0.6,1.1 C140.9,174.9,140.9,174.9,140.7,174.9z M142.6,145.5v4.1v5c0,0.2,0,0.2-0.2,0.2h-1.6c-0.2,0-0.2,0-0.2-0.2v-5v-4.1 c0-0.2-0.2-0.3-0.3-0.3c-0.9,0-2.7,0.2-2.7,0.2c-0.2,0-0.2,0-0.2-0.2v-0.8c0-0.2,0.2-0.2,0.3-0.2h7.7c0.2,0,0.3,0,0.3,0.2l-0.2,0.8 c0,0.2-0.2,0.2-0.2,0.2s-1.7-0.2-2.7-0.2C142.8,145.2,142.6,145.4,142.6,145.5z M149.8,174.9c-0.2,0-0.3,0-0.3,0h-6.1 c-0.2,0-0.2,0-0.2-0.2v-5v-5c0-0.2,0-0.2,0.2-0.2h1.6c0.2,0,0.2,0,0.2,0.2v5v3.9c0,0.2,0.2,0.5,0.5,0.5h1.3c0.9,0,2.7-0.3,2.7-0.3 c0.2,0,0.3,0,0.3,0.2V174.9z M154.5,154.6c-0.2,0-0.2-0.2-0.3-0.2l-2.2-3.9c-0.3-0.5-0.6-0.6-0.9-0.6h-0.6c-0.2,0-0.3,0.2-0.3,0.3 v4.4c0,0.2,0,0.2-0.2,0.2h-1.6c-0.2,0-0.2,0-0.2-0.2v-5v-5c0-0.2,0-0.2,0.2-0.2h4.6c1.6,0,2.8,1.1,2.8,2.5c0,1.4-1.1,2.5-2.5,2.8 c-0.2,0-0.2,0.2,0,0.2c0.2,0.2,0.3,0.3,0.6,0.8l2.4,3.3l0.5,0.6c0,0-0.2,0-0.3,0H154.5z M160.5,175c-1.6,0-2.7-0.3-3.6-0.8 c-0.2,0-0.2-0.2-0.2-0.3l0.3-1.1c0-0.2,0.2-0.2,0.3,0c0.8,0.8,1.9,1.4,3.1,1.4c0.9,0,2-0.8,2-1.7c0-2.7-5.8-1.6-5.8-5.5 c0-1.7,1.3-2.8,3.1-2.8c1.6,0,2.8,0.3,3.6,0.3c0.2,0,0.2,0.2,0.2,0.2l-0.3,1.1c0,0.2-0.2,0.2-0.3,0.2c-0.8-0.5-1.6-0.9-3.1-0.9 c-0.8,0-1.6,0.5-1.6,1.4c0,2.8,5.8,1.4,5.8,5.8C164.3,174.2,162.7,175,160.5,175z M165.7,154.5c0,0-0.3-0.8-0.5-1.3l-0.6-1.4 c0-0.2-0.2-0.2-0.2-0.2h-3.3c-0.2,0-0.2,0-0.2,0.2l-0.8,2.7c0,0.2-0.2,0.2-0.3,0.2h-1.3c-0.2,0-0.2-0.2-0.2-0.3l3.9-10 c0-0.2,1.3-0.2,1.3,0l3.6,8.9c0.2,0.5,0.6,1.1,0.6,1.1c0.2,0.3,0.2,0.3,0,0.3H166C165.8,154.6,165.7,154.6,165.7,154.5z M174.5,165.5c0,0.2-0.2,0.2-0.2,0.2s-1.7-0.2-2.7-0.2c-0.2,0-0.3,0.2-0.3,0.3v4.1v5c0,0.2,0,0.2-0.2,0.2h-1.6 c-0.2,0-0.2,0-0.2-0.2v-5v-4.1c0-0.2-0.2-0.3-0.3-0.3c-0.9,0-2.7,0.2-2.7,0.2c-0.2,0-0.2,0-0.2-0.2v-0.8c0-0.2,0.2-0.2,0.3-0.2h7.7 c0.2,0,0.3,0,0.3,0.2L174.5,165.5z M176.7,145.2c0,0.2-0.2,0.2-0.2,0.2s-1.7-0.2-2.7-0.2c-0.2,0-0.3,0.2-0.3,0.3v4.1v5 c0,0.2,0,0.2-0.2,0.2h-1.6c-0.2,0-0.2,0-0.2-0.2v-5v-4.1c0-0.2-0.2-0.3-0.3-0.3c-0.9,0-2.7,0.2-2.7,0.2c-0.2,0-0.2,0-0.2-0.2v-0.8 c0-0.2,0.2-0.2,0.3-0.2h7.7c0.2,0,0.3,0,0.3,0.2L176.7,145.2z M184.8,165.9l-0.2,5.8c0,2.2-1.3,3.5-3.6,3.5c-2.7,0-4.1-1.1-4.1-3.5 v-6v-1.1c0-0.2,0-0.2,0.2-0.2h1.6c0.2,0,0.2,0,0.2,0.2v1.1v5.8c0,1.6,1.1,2.5,2.2,2.5c1.1,0,2.2-0.6,2.2-2.4v-5.8 c0-0.5,0-1.3,0-1.3c0-0.2,0-0.3,0.2-0.3h1.4c0.2,0,0.2,0.2,0.2,0.3C184.8,164.7,184.8,165.5,184.8,165.9z M186.3,154.6 c-0.3,0-0.3,0-0.5,0h-6.4c-0.2,0-0.2,0-0.2-0.2v-5v-5c0-0.2,0-0.2,0.2-0.2h6.3c0.2,0,0.3,0,0.3,0.2v0.8c0,0.2-0.2,0.2-0.3,0.2 c0,0-1.9-0.3-2.7-0.3h-1.4c-0.2,0-0.5,0.2-0.5,0.5v3.1c0,0,0,0.2,0.2,0.2l3.1-0.2c0.2,0,0.2,0,0.2,0.2v0.8c0,0.2-0.2,0.2-0.2,0.2 l-3.1-0.2c0,0-0.2,0-0.2,0.2v3.6c0,0.2,0.2,0.5,0.5,0.5h1.4c0.9,0,3-0.3,3-0.3c0.2,0,0.3,0,0.3,0.2V154.6z M191.4,174.9 c-1.9,0-2-0.2-2.5-0.2c-0.5,0-0.5,0.2-0.8,0.2c-0.2,0-0.2,0-0.2-0.2v-5v-5c0-0.2,0-0.2,0.2-0.2h3.8c2.2,0,4.2,1.7,4.2,5 C196.1,172.4,194.6,174.9,191.4,174.9z M196.3,154.6c0,0-0.2,0-0.2,0c-0.2,0-0.6-0.5-0.6-0.5c-0.2,0-0.2,0-0.3,0 c-0.6,0.3-1.6,0.6-2.7,0.6c-2.5,0-4.6-1.4-4.6-5.3c0-3.3,2-5.2,4.6-5.2h3c0.2,0,0.2,0,0.2,0.2l-0.2,1.1c0,0.2-0.2,0.2-0.3,0.2 c-0.9-0.3-1.3-0.5-2.8-0.5c-1.6,0-2.4,1.6-2.4,4.4c0,3.5,1.4,4.6,3,4.6c0.6,0,1.6-0.5,1.6-1.1c0-0.2-0.2-2.8-0.2-2.8s0-0.3,0-0.5 s0.2-0.3,0.2-0.3h1.6c0,0,0.2,0,0.2,0.2V154.6z M200.7,174.9h-1.6c-0.2,0-0.2,0-0.2-0.2v-5v-5c0-0.2,0-0.2,0.2-0.2h1.6 c0.2,0,0.2,0,0.2,0.2v5v5C201,174.9,200.9,174.9,200.7,174.9z M201.3,149.4v5c0,0.2,0,0.2-0.2,0.2h-1.6c-0.2,0-0.2,0-0.2-0.2v-5v-5 c0-0.2,0-0.2,0.2-0.2h1.6c0.2,0,0.2,0,0.2,0.2V149.4z M211.4,174.9c-0.2,0-0.3,0-0.5,0h-6.4c-0.2,0-0.2,0-0.2-0.2v-5v-5 c0-0.2,0-0.2,0.2-0.2h6.3c0.2,0,0.3,0,0.3,0.2v0.8c0,0.2-0.2,0.2-0.3,0.2c0,0-1.9-0.3-2.7-0.3h-1.4c-0.2,0-0.5,0.2-0.5,0.5v3.1 c0,0,0,0.2,0.2,0.2l3.1-0.2c0.2,0,0.2,0,0.2,0.2v0.8c0,0.2-0.2,0.2-0.2,0.2l-3.1-0.2c0,0-0.2,0-0.2,0.2v3.6c0,0.2,0.2,0.5,0.5,0.5 h1.4c0.9,0,3-0.3,3-0.3c0.2,0,0.3,0,0.3,0.2V174.9z M212.2,153.5c-0.8,0.8-2,1.3-3.3,1.3c-2.5,0-4.6-1.4-4.6-5.3 c0-3.3,2-5.2,4.6-5.2h3c0.2,0,0.2,0,0.2,0.2l-0.2,1.1c0,0.2-0.2,0.2-0.3,0.2c-0.9-0.3-1.3-0.5-2.8-0.5c-1.6,0-2.4,1.6-2.4,4.4 c0,3.5,1.4,4.4,3,4.4c0.8,0,1.6-0.5,2.2-1.1h0.2l0.5,0.5V153.5z M210.4,111.3c-3.3,2.1-9.1,3.6-13.7,3.6c-3.3,0-10-1.2-13.1-2.7 c-0.9-0.6-2.4-2.7-2.4-3.3c-0.6-3.3-1.5-7.9-1.5-9.4c0-0.3,0.9-1.8,1.5-1.8c0.9,0,2.4,2.7,3.6,5.8c2.7,5.5,9.1,7.9,13.1,7.9 c7,0,12.2-4.9,12.2-12.2c0-4.3-2.1-8.8-12.5-15.5c-8.5-5.5-14.6-11.3-14.6-19.8c0-4.9,2.1-9.1,5.5-12.2c3-2.7,7.9-4.9,14.9-4.9 c4.6,0,9.7,1.5,11.6,1.8c0.6,0.3,1.2,1.8,1.2,1.8c0.3,1.8,0.9,7.6,0.9,8.2c0,1.8,0,2.7-0.6,2.7c-0.9,0-2.1-0.6-2.4-2.1 c-1.2-3.6-4-6.7-4.9-7.3c-1.8-1.5-4.3-2.4-7-2.4c-6.7,0-11.6,5.2-11.6,11.9c0,7,5.2,10.3,14,16.1c7.6,5.2,14,10.3,14,19.5 C218.6,102.2,215.9,107.6,210.4,111.3z M217.2,175c-1.6,0-2.7-0.3-3.6-0.8c-0.2,0-0.2-0.2-0.2-0.3l0.3-1.1c0-0.2,0.2-0.2,0.3,0 c0.8,0.8,1.9,1.4,3.1,1.4c0.9,0,2-0.8,2-1.7c0-2.7-5.8-1.6-5.8-5.5c0-1.7,1.3-2.8,3.1-2.8c1.6,0,2.8,0.3,3.6,0.3 c0.2,0,0.2,0.2,0.2,0.2l-0.3,1.1c0,0.2-0.2,0.2-0.3,0.2c-0.8-0.5-1.6-0.9-3.1-0.9c-0.8,0-1.6,0.5-1.6,1.4c0,2.8,5.8,1.4,5.8,5.8 C220.9,174.2,219.4,175,217.2,175z M226.1,150.4c-0.3,0-0.3,0.2-0.3,0.2h-1.3v3.9c0,0.2-0.2,0.2-0.2,0.2h-4.1 c-1.9,0-2.8-1.3-2.8-2.4c0-1.1,0.8-2,2-2.4c-0.8-0.3-1.3-1.1-1.3-1.9c0-1.4,1.1-2.2,2.7-2.2h1.6c0.2,0,0.3,0,0.3,0.2v0.6 c0,0.2-0.2,0.2-0.2,0.2s-0.6-0.3-0.9-0.3c-0.8,0-1.4,0.5-1.4,1.6c0,0.9,0.6,1.7,1.6,1.7h1.3v-1.1c0-0.2,0.2-0.2,0.2-0.2l1.3,0.2 c0.2,0,0.2,0,0.2,0.2v0.9h1.3c0.2,0,0.2,0,0.2,0.2V150.4z"/> <path fill="#005581" d="M219.7,152.1c0,0.9,0.6,1.9,1.4,1.9s1.3,0,1.7-0.2v-3.5h-1.6C220.2,150.4,219.7,151.2,219.7,152.1z"/> <path fill="#005581" d="M113.4,165c-2,0-2.4,2.5-2.4,4.6c0,1.9,0.2,5,2.5,5c2,0,2.4-2.5,2.4-4.6S115.8,165,113.4,165z"/> <path fill="#005581" d="M116.2,144.9h-1.1c-0.2,0-0.5,0.2-0.5,0.5v3.5c0,0.2,0.2,0.3,0.3,0.3h0.6c1.6,0,2.5-0.6,2.5-2.2 C118.1,145.7,117.3,144.9,116.2,144.9z"/> </g> </svg>
