<?xml version="1.0" encoding="utf-8"?>
<!-- Generator: Adobe Illustrator 22.1.0, SVG Export Plug-In . SVG Version: 6.00 Build 0)  -->
<svg version="1.1" id="Layer_1" xmlns="http://www.w3.org/2000/svg" xmlns:xlink="http://www.w3.org/1999/xlink" x="0px" y="0px"
	 viewBox="0 0 216.5 31" style="enable-background:new 0 0 216.5 31;" xml:space="preserve">
<style type="text/css">
	.st0{fill:#FFFFFF;}
</style>
<g>
	<path class="st0" d="M16.9,4.5c0.9,0.1,2,0.6,2.5,0.6c0.2,0,0.5,0.2,0.5,1c0,0.7,0.2,2.1,0.2,2.9c0,0.7-0.2,1.1-0.5,1.1
		c-0.2,0-0.4-0.4-0.5-0.9c-0.3-1.2-0.9-2.1-1.4-2.5C15.9,5.3,14.2,5,12.4,5c-5.3,0-8.7,4.4-8.7,9.4c0,2.2,0.4,4,1.2,5.4
		c1.8,3.8,5.7,5.3,8.4,5.3c0.6,0,2.2-0.1,3.6-0.9c1.5-0.8,2.3-1.8,3.1-3.2c0.4-0.7,0.6-0.9,0.7-0.9c0.3,0,0.4,0.7,0.3,1.1
		c-0.1,0.8-0.9,2.6-1.3,3.3c-0.1,0.3-0.7,0.7-1,0.9c-0.5,0.2-3.2,0.9-6,0.9c-4.7,0-8.1-2.3-9.4-3.9c-1.3-1.5-2.8-3.8-2.8-7.6
		S2.7,8,4.1,6.9c2.8-2.3,5.9-3,8.9-3C14.1,4,15.6,4.2,16.9,4.5z"/>
	<path class="st0" d="M35,4.6c0.2,0.1,0.4,0.6,0.4,0.6c0.1,0.6,0.3,2.5,0.3,2.7c0,0.6,0,0.9-0.2,0.9c-0.3,0-0.7-0.2-0.8-0.7
		c-0.4-1.2-1.3-2.2-1.6-2.4c-0.6-0.5-1.4-0.8-2.3-0.8c-2.2,0-3.8,1.7-3.8,3.9c0,2.3,1.7,3.4,4.6,5.3c2.5,1.7,4.6,3.4,4.6,6.4
		c0,1.7-0.9,3.5-2.7,4.7c-1.1,0.7-3,1.2-4.5,1.2c-1.1,0-3.3-0.4-4.3-0.9c-0.3-0.2-0.8-0.9-0.8-1.1c-0.2-1.1-0.5-2.6-0.5-3.1
		c0-0.1,0.3-0.6,0.5-0.6c0.3,0,0.8,0.9,1.2,1.9c0.9,1.8,3,2.6,4.3,2.6c2.3,0,4-1.6,4-4c0-1.4-0.7-2.9-4.1-5.1
		c-2.8-1.8-4.8-3.7-4.8-6.5c0-1.6,0.7-3,1.8-4c1-0.9,2.6-1.6,4.9-1.6C32.7,4,34.5,4.5,35,4.6z"/>
	<path class="st0" d="M42.1,7.8c-0.1-1.5-0.1-2-1.9-2.3c-0.7-0.1-0.9-0.4-0.9-0.6c0-0.3,0.4-0.4,0.8-0.4c0.9,0,2.5,0.1,3.6,0.1
		c1.6,0,2.4-0.1,3.5-0.1c0.5,0,0.8,0.1,0.8,0.4s-0.3,0.5-0.9,0.6c-1.9,0.4-1.9,1.2-2,2.1c-0.1,1-0.1,3.2-0.1,9.7
		c0,1.8,0,3.9,0.1,4.9c0.1,1.8,0.3,2.4,2.4,2.8c0.6,0.1,0.9,0.3,0.9,0.6S47.9,26,47.5,26c-1.7,0-4-0.2-4.9-0.2c-1,0-1.3,0.1-2.5,0.1
		c-0.6,0-0.9-0.2-0.9-0.5c0-0.2,0.3-0.4,1-0.6c1.7-0.4,1.8-0.9,1.9-2.4c0.1-1.2,0.2-4.6,0.2-7.4C42.2,13,42.2,8.9,42.1,7.8z"/>
	<path class="st0" d="M62.4,4.6c0.2,0.1,0.4,0.6,0.4,0.6c0.1,0.6,0.3,2.5,0.3,2.7c0,0.6,0,0.9-0.2,0.9c-0.3,0-0.7-0.2-0.8-0.7
		c-0.4-1.2-1.3-2.2-1.6-2.4c-0.6-0.5-1.4-0.8-2.3-0.8c-2.2,0-3.8,1.7-3.8,3.9c0,2.3,1.7,3.4,4.6,5.3c2.5,1.7,4.6,3.4,4.6,6.4
		c0,1.7-0.9,3.5-2.7,4.7c-1.1,0.7-3,1.2-4.5,1.2c-1.1,0-3.3-0.4-4.3-0.9c-0.3-0.2-0.8-0.9-0.8-1.1c-0.2-1.1-0.5-2.6-0.5-3.1
		c0-0.1,0.3-0.6,0.5-0.6c0.3,0,0.8,0.9,1.2,1.9c0.9,1.8,3,2.6,4.3,2.6c2.3,0,4-1.6,4-4c0-1.4-0.7-2.9-4.1-5.1
		c-2.8-1.8-4.8-3.7-4.8-6.5c0-1.6,0.7-3,1.8-4c1-0.9,2.6-1.6,4.9-1.6C60.1,4,61.9,4.5,62.4,4.6z"/>
	<path class="st0" d="M75.5,29.8v-29c0-0.3,0.2-0.5,0.5-0.5s0.5,0.2,0.5,0.5v29c0,0.3-0.2,0.5-0.5,0.5
		C75.8,30.3,75.5,30.1,75.5,29.8z"/>
	<path class="st0" d="M91.6,13.2c-1.6,0-2.9-0.9-2.9-3.4c0-2.1,1.3-3.3,2.9-3.3h1.9c0.1,0,0.1,0,0.1,0.1l-0.1,0.7
		c0,0.1-0.1,0.1-0.2,0.1c-0.6-0.2-0.8-0.3-1.8-0.3S90,8.1,90,9.9c0,2.2,0.9,2.8,1.9,2.8c0.5,0,1-0.3,1.4-0.7h0.1l0.3,0.3v0.1
		C93.2,12.9,92.4,13.2,91.6,13.2z"/>
	<path class="st0" d="M99.5,13.1h-4.1c-0.1,0-0.1,0-0.1-0.1V9.8V6.6c0-0.1,0-0.1,0.1-0.1h4c0.1,0,0.2,0,0.2,0.1v0.5
		c0,0.1-0.1,0.1-0.2,0.1c0,0-1.2-0.2-1.7-0.2h-0.9c-0.1,0-0.3,0.1-0.3,0.3v2c0,0,0,0.1,0.1,0.1l2-0.1c0.1,0,0.1,0,0.1,0.1v0.5
		c0,0.1-0.1,0.1-0.1,0.1l-2-0.1c0,0-0.1,0-0.1,0.1v2.3c0,0.1,0.1,0.3,0.3,0.3h0.9c0.6,0,1.9-0.2,1.9-0.2c0.1,0,0.2,0,0.2,0.1v0.6
		C99.7,13.1,99.6,13.1,99.5,13.1z"/>
	<path class="st0" d="M106.5,11.3v1.8c0,0.2-0.6,0.2-0.6,0.1l-3.5-4.8c-0.1-0.1-0.1,0-0.1,0l0.1,4.5c0,0.1,0,0.2-0.1,0.2h-0.8
		c-0.1,0-0.1-0.1-0.1-0.2l0.1-4.7V6.6c0-0.1,0-0.1,0.1-0.1h0.6c0.1,0,0.2,0,0.2,0.1l3.1,4.3c0.1,0.1,0.2,0.1,0.2,0l-0.1-4.1
		c0-0.1,0-0.2,0.1-0.2h0.7c0.1,0,0.1,0.1,0.1,0.2L106.5,11.3z"/>
	<path class="st0" d="M113.3,7.1c0,0.1-0.1,0.1-0.1,0.1s-1.1-0.1-1.7-0.1c-0.1,0-0.2,0.1-0.2,0.2v2.6v3.2c0,0.1,0,0.1-0.1,0.1h-1
		c-0.1,0-0.1,0-0.1-0.1V9.9V7.3c0-0.1-0.1-0.2-0.2-0.2c-0.6,0-1.7,0.1-1.7,0.1c-0.1,0-0.1,0-0.1-0.1V6.6c0-0.1,0.1-0.1,0.2-0.1h4.9
		c0.1,0,0.2,0,0.2,0.1L113.3,7.1z"/>
	<path class="st0" d="M119.1,13.1H115c-0.1,0-0.1,0-0.1-0.1V9.8V6.6c0-0.1,0-0.1,0.1-0.1h4c0.1,0,0.2,0,0.2,0.1v0.5
		c0,0.1-0.1,0.1-0.2,0.1c0,0-1.2-0.2-1.7-0.2h-0.9c-0.1,0-0.3,0.1-0.3,0.3v2c0,0,0,0.1,0.1,0.1l2-0.1c0.1,0,0.1,0,0.1,0.1v0.5
		c0,0.1-0.1,0.1-0.1,0.1l-2-0.1c0,0-0.1,0-0.1,0.1v2.3c0,0.1,0.1,0.3,0.3,0.3h0.9c0.6,0,1.9-0.2,1.9-0.2c0.1,0,0.2,0,0.2,0.1v0.6
		C119.3,13.1,119.2,13.1,119.1,13.1L119.1,13.1z"/>
	<path class="st0" d="M126.1,13.1h-1.2c-0.1,0-0.1-0.1-0.2-0.1l-1.4-2.5c-0.2-0.3-0.4-0.4-0.6-0.4h-0.4c-0.1,0-0.2,0.1-0.2,0.2v2.8
		c0,0.1,0,0.1-0.1,0.1h-1c-0.1,0-0.1,0-0.1-0.1V9.9V6.7c0-0.1,0-0.1,0.1-0.1h2.9c1,0,1.8,0.7,1.8,1.6s-0.7,1.6-1.6,1.8
		c-0.1,0-0.1,0.1,0,0.1c0.1,0.1,0.2,0.2,0.4,0.5l1.5,2.1l0.3,0.4C126.2,13.1,126.2,13.1,126.1,13.1z M123.1,6.9h-0.7
		c-0.1,0-0.3,0.1-0.3,0.3v2.2c0,0.1,0.1,0.2,0.2,0.2h0.4c1,0,1.6-0.4,1.6-1.4C124.3,7.4,123.8,6.9,123.1,6.9z"/>
	<path class="st0" d="M135,7.2c0,0-1.3-0.2-1.7-0.2h-0.8c-0.1,0-0.3,0.1-0.3,0.3v2c0,0,0,0.1,0.1,0.1l1.9-0.1c0.1,0,0.1,0,0.1,0.1
		v0.5c0,0.1-0.1,0.1-0.1,0.1l-1.9-0.1c0,0-0.1,0-0.1,0.1v3c0,0.1,0,0.1-0.1,0.1h-1c-0.1,0-0.1,0-0.1-0.1V9.8V6.6
		c0-0.1,0-0.1,0.1-0.1h3.9c0.1,0,0.2,0,0.2,0.1v0.5C135.2,7.2,135.1,7.2,135,7.2L135,7.2z"/>
	<path class="st0" d="M139.1,13.3c-2.2,0-2.9-1.7-2.9-3.5s0.7-3.5,2.9-3.5S142,8,142,9.8C142,11.5,141.3,13.3,139.1,13.3z
		 M139.1,6.8c-1.3,0-1.5,1.6-1.5,2.9c0,1.2,0.1,3.2,1.6,3.2c1.3,0,1.5-1.6,1.5-2.9S140.6,6.8,139.1,6.8z"/>
	<path class="st0" d="M149.1,13.1h-1.2c-0.1,0-0.1-0.1-0.2-0.1l-1.4-2.5c-0.2-0.3-0.4-0.4-0.6-0.4h-0.4c-0.1,0-0.2,0.1-0.2,0.2v2.8
		c0,0.1,0,0.1-0.1,0.1h-1c-0.1,0-0.1,0-0.1-0.1V9.9V6.7c0-0.1,0-0.1,0.1-0.1h2.9c1,0,1.8,0.7,1.8,1.6s-0.7,1.6-1.6,1.8
		c-0.1,0-0.1,0.1,0,0.1c0.1,0.1,0.2,0.2,0.4,0.5l1.5,2.1l0.3,0.4C149.2,13.1,149.2,13.1,149.1,13.1z M146.1,6.9h-0.7
		c-0.1,0-0.3,0.1-0.3,0.3v2.2c0,0.1,0.1,0.2,0.2,0.2h0.4c1,0,1.6-0.4,1.6-1.4C147.3,7.4,146.8,6.9,146.1,6.9z"/>
	<path class="st0" d="M156.1,13.2c-1,0-1.7-0.2-2.3-0.5c-0.1,0-0.1-0.1-0.1-0.2l0.2-0.7c0-0.1,0.1-0.1,0.2,0c0.5,0.5,1.2,0.9,2,0.9
		c0.6,0,1.3-0.5,1.3-1.1c0-1.7-3.7-1-3.7-3.5c0-1.1,0.8-1.8,2-1.8c1,0,1.8,0.2,2.3,0.2c0.1,0,0.1,0.1,0.1,0.1l-0.2,0.7
		c0,0.1-0.1,0.1-0.2,0.1c-0.5-0.3-1-0.6-2-0.6c-0.5,0-1,0.3-1,0.9c0,1.8,3.7,0.9,3.7,3.7C158.5,12.7,157.4,13.2,156.1,13.2z"/>
	<path class="st0" d="M164.9,7.1c0,0.1-0.1,0.1-0.1,0.1s-1.1-0.1-1.7-0.1c-0.1,0-0.2,0.1-0.2,0.2v2.6v3.2c0,0.1,0,0.1-0.1,0.1h-1
		c-0.1,0-0.1,0-0.1-0.1V9.9V7.3c0-0.1-0.1-0.2-0.2-0.2c-0.6,0-1.7,0.1-1.7,0.1c-0.1,0-0.1,0-0.1-0.1V6.6c0-0.1,0.1-0.1,0.2-0.1h4.9
		c0.1,0,0.2,0,0.2,0.1L164.9,7.1z"/>
	<path class="st0" d="M171.7,13.1h-1.2c-0.1,0-0.1-0.1-0.2-0.1l-1.4-2.5c-0.2-0.3-0.4-0.4-0.6-0.4h-0.4c-0.1,0-0.2,0.1-0.2,0.2v2.8
		c0,0.1,0,0.1-0.1,0.1h-1c-0.1,0-0.1,0-0.1-0.1V9.9V6.7c0-0.1,0-0.1,0.1-0.1h2.9c1,0,1.8,0.7,1.8,1.6s-0.7,1.6-1.6,1.8
		c-0.1,0-0.1,0.1,0,0.1c0.1,0.1,0.2,0.2,0.4,0.5l1.5,2.1l0.3,0.4C171.9,13.1,171.8,13.1,171.7,13.1z M168.7,6.9H168
		c-0.1,0-0.3,0.1-0.3,0.3v2.2c0,0.1,0.1,0.2,0.2,0.2h0.4c1,0,1.6-0.4,1.6-1.4C169.9,7.4,169.4,6.9,168.7,6.9z"/>
	<path class="st0" d="M179,13.1h-1.2c-0.1,0-0.2,0-0.2-0.1c0,0-0.2-0.5-0.3-0.8l-0.4-0.9c0-0.1-0.1-0.1-0.1-0.1h-2.1
		c-0.1,0-0.1,0-0.1,0.1l-0.5,1.7c0,0.1-0.1,0.1-0.2,0.1h-0.8c-0.1,0-0.1-0.1-0.1-0.2l2.5-6.4c0-0.1,0.8-0.1,0.8,0l2.3,5.7
		c0.1,0.3,0.4,0.7,0.4,0.7C179.1,13.1,179.1,13.1,179,13.1L179,13.1z M175.8,8.2c0-0.1-0.1-0.1-0.1,0l-0.9,2.5c0,0.1,0,0.1,0.1,0.1
		h1.7c0.1,0,0.1-0.1,0.1-0.1L175.8,8.2z"/>
	<path class="st0" d="M184.5,7.1c0,0.1-0.1,0.1-0.1,0.1s-1.1-0.1-1.7-0.1c-0.1,0-0.2,0.1-0.2,0.2v2.6v3.2c0,0.1,0,0.1-0.1,0.1h-1
		c-0.1,0-0.1,0-0.1-0.1V9.9V7.3c0-0.1-0.1-0.2-0.2-0.2c-0.6,0-1.7,0.1-1.7,0.1c-0.1,0-0.1,0-0.1-0.1V6.6c0-0.1,0.1-0.1,0.2-0.1h4.9
		c0.1,0,0.2,0,0.2,0.1L184.5,7.1z"/>
	<path class="st0" d="M190.4,13.1h-4.1c-0.1,0-0.1,0-0.1-0.1V9.8V6.6c0-0.1,0-0.1,0.1-0.1h4c0.1,0,0.2,0,0.2,0.1v0.5
		c0,0.1-0.1,0.1-0.2,0.1c0,0-1.2-0.2-1.7-0.2h-0.9c-0.1,0-0.3,0.1-0.3,0.3v2c0,0,0,0.1,0.1,0.1l2-0.1c0.1,0,0.1,0,0.1,0.1v0.5
		c0,0.1-0.1,0.1-0.1,0.1l-2-0.1c0,0-0.1,0-0.1,0.1v2.3c0,0.1,0.1,0.3,0.3,0.3h0.9c0.6,0,1.9-0.2,1.9-0.2c0.1,0,0.2,0,0.2,0.1v0.6
		C190.5,13.1,190.4,13.1,190.4,13.1L190.4,13.1z"/>
	<path class="st0" d="M197,13.1c-0.1,0-0.4-0.3-0.4-0.3c-0.1,0-0.1,0-0.2,0c-0.4,0.2-1,0.4-1.7,0.4c-1.6,0-2.9-0.9-2.9-3.4
		c0-2.1,1.3-3.3,2.9-3.3h1.9c0.1,0,0.1,0,0.1,0.1l-0.1,0.7c0,0.1-0.1,0.1-0.2,0.1c-0.6-0.2-0.8-0.3-1.8-0.3s-1.5,1-1.5,2.8
		c0,2.2,0.9,2.9,1.9,2.9c0.4,0,1-0.3,1-0.7c0-0.1-0.1-1.8-0.1-1.8s0-0.2,0-0.3s0.1-0.2,0.1-0.2h1c0,0,0.1,0,0.1,0.1v3.2L197,13.1z"
		/>
	<path class="st0" d="M200.2,13.1h-1c-0.1,0-0.1,0-0.1-0.1V9.8V6.6c0-0.1,0-0.1,0.1-0.1h1c0.1,0,0.1,0,0.1,0.1v3.2V13
		C200.3,13.1,200.3,13.1,200.2,13.1z"/>
	<path class="st0" d="M205.1,13.2c-1.6,0-2.9-0.9-2.9-3.4c0-2.1,1.3-3.3,2.9-3.3h1.9c0.1,0,0.1,0,0.1,0.1L207,7.3
		c0,0.1-0.1,0.1-0.2,0.1c-0.6-0.2-0.8-0.3-1.8-0.3s-1.5,1-1.5,2.8c0,2.2,0.9,2.8,1.9,2.8c0.5,0,1-0.3,1.4-0.7h0.1l0.3,0.3v0.1
		C206.7,12.9,205.9,13.2,205.1,13.2L205.1,13.2z"/>
	<path class="st0" d="M215.8,10.5H215V13c0,0.1-0.1,0.1-0.1,0.1h-2.5c-1.2,0-1.8-0.8-1.8-1.5s0.5-1.3,1.3-1.5
		c-0.5-0.2-0.8-0.7-0.8-1.2c0-0.9,0.7-1.4,1.7-1.4h1c0.1,0,0.2,0,0.2,0.1V8c0,0.1-0.1,0.1-0.1,0.1s-0.4-0.2-0.6-0.2
		c-0.5,0-0.9,0.3-0.9,1c0,0.6,0.4,1.1,1,1.1h0.8V9.3c0-0.1,0.1-0.1,0.1-0.1l0.8,0.1c0.1,0,0.1,0,0.1,0.1V10h0.8c0.1,0,0.1,0,0.1,0.1
		v0.3C215.9,10.4,215.9,10.5,215.8,10.5z M214,10.4h-1c-0.7,0-1,0.5-1,1.1s0.4,1.2,0.9,1.2s0.8,0,1.1-0.1V10.4z"/>
	<path class="st0" d="M90,26h-1c-0.1,0-0.1,0-0.1-0.1v-3.2v-3.2c0-0.1,0-0.1,0.1-0.1h1c0.1,0,0.1,0,0.1,0.1v3.2L90,26
		C90.1,26,90.1,26,90,26z"/>
	<path class="st0" d="M97.3,24.2V26c0,0.2-0.6,0.2-0.6,0.1l-3.5-4.8c-0.1-0.1-0.1,0-0.1,0l0.1,4.5c0,0.1,0,0.2-0.1,0.2h-0.8
		c-0.1,0-0.1-0.1-0.1-0.2l0.1-4.7v-1.6c0-0.1,0-0.1,0.1-0.1H93c0.1,0,0.2,0,0.2,0.1l3.1,4.3c0.1,0.1,0.2,0.1,0.2,0l-0.1-4.1
		c0-0.1,0-0.2,0.1-0.2h0.7c0.1,0,0.1,0.1,0.1,0.2L97.3,24.2z"/>
	<path class="st0" d="M104.1,20C104.1,20.1,104,20.1,104.1,20c-0.1,0.1-1.2,0-1.8,0c-0.1,0-0.2,0.1-0.2,0.2v2.6V26
		c0,0.1,0,0.1-0.1,0.1h-1c-0.1,0-0.1,0-0.1-0.1v-3.2v-2.6c0-0.1-0.1-0.2-0.2-0.2c-0.6,0-1.7,0.1-1.7,0.1c-0.1,0-0.1,0-0.1-0.1v-0.5
		c0-0.1,0.1-0.1,0.2-0.1h4.9c0.1,0,0.2,0,0.2,0.1L104.1,20z"/>
	<path class="st0" d="M110,26h-4.1c-0.1,0-0.1,0-0.1-0.1v-3.2v-3.2c0-0.1,0-0.1,0.1-0.1h4c0.1,0,0.2,0,0.2,0.1V20
		c0,0.1-0.1,0.1-0.2,0.1c0,0-1.2-0.2-1.7-0.2h-0.9c-0.1,0-0.3,0.1-0.3,0.3v2c0,0,0,0.1,0.1,0.1l2-0.1c0.1,0,0.1,0,0.1,0.1v0.5
		c0,0.1-0.1,0.1-0.1,0.1l-2-0.1c0,0-0.1,0-0.1,0.1v2.3c0,0.1,0.1,0.3,0.3,0.3h0.9c0.6,0,1.9-0.2,1.9-0.2c0.1,0,0.2,0,0.2,0.1V26
		C110.1,26,110.1,26,110,26L110,26z"/>
	<path class="st0" d="M117,26h-1.2c-0.1,0-0.1-0.1-0.2-0.1l-1.4-2.5c-0.2-0.3-0.4-0.4-0.6-0.4h-0.4c-0.1,0-0.2,0.1-0.2,0.2V26
		c0,0.1,0,0.1-0.1,0.1h-1c-0.1,0-0.1,0-0.1-0.1v-3.2v-3.2c0-0.1,0-0.1,0.1-0.1h2.9c1,0,1.8,0.7,1.8,1.6s-0.7,1.6-1.6,1.8
		c-0.1,0-0.1,0.1,0,0.1c0.1,0.1,0.2,0.2,0.4,0.5l1.5,2.1l0.3,0.4C117.1,25.9,117,26,117,26z M114,19.8h-0.7c-0.1,0-0.3,0.1-0.3,0.3
		v2.2c0,0.1,0.1,0.2,0.2,0.2h0.4c1,0,1.6-0.4,1.6-1.4C115.1,20.3,114.7,19.8,114,19.8z"/>
	<path class="st0" d="M123.8,24.2V26c0,0.2-0.6,0.2-0.6,0.1l-3.5-4.8c-0.1-0.1-0.1,0-0.1,0l0.1,4.5c0,0.1,0,0.2-0.1,0.2h-0.8
		c-0.1,0-0.1-0.1-0.1-0.2l0.1-4.7v-1.6c0-0.1,0-0.1,0.1-0.1h0.6c0.1,0,0.2,0,0.2,0.1l3.1,4.3c0.1,0.1,0.2,0.1,0.2,0l-0.1-4.1
		c0-0.1,0-0.2,0.1-0.2h0.7c0.1,0,0.1,0.1,0.1,0.2V24.2z"/>
	<path class="st0" d="M131.2,26H130c-0.1,0-0.2,0-0.2-0.1c0,0-0.2-0.5-0.3-0.8l-0.4-0.9c0-0.1-0.1-0.1-0.1-0.1h-2.1
		c-0.1,0-0.1,0-0.1,0.1l-0.5,1.7c0,0.1-0.1,0.1-0.2,0.1h-0.8c-0.1,0-0.1-0.1-0.1-0.2l2.5-6.4c0-0.1,0.8-0.1,0.8,0l2.3,5.7
		c0.1,0.3,0.4,0.7,0.4,0.7C131.4,26,131.3,26,131.2,26L131.2,26z M128.1,21.1c0-0.1-0.1-0.1-0.1,0l-0.9,2.5c0,0.1,0,0.1,0.1,0.1h1.7
		c0.1,0,0.1-0.1,0.1-0.1L128.1,21.1z"/>
	<path class="st0" d="M136.8,20c0,0.1-0.1,0.1-0.1,0.1S135.6,20,135,20c-0.1,0-0.2,0.1-0.2,0.2v2.6V26c0,0.1,0,0.1-0.1,0.1h-1
		c-0.1,0-0.1,0-0.1-0.1v-3.2v-2.6c0-0.1-0.1-0.2-0.2-0.2c-0.6,0-1.7,0.1-1.7,0.1c-0.1,0-0.1,0-0.1-0.1v-0.5c0-0.1,0.1-0.1,0.2-0.1
		h4.9c0.1,0,0.2,0,0.2,0.1L136.8,20z"/>
	<path class="st0" d="M139.5,26h-1c-0.1,0-0.1,0-0.1-0.1v-3.2v-3.2c0-0.1,0-0.1,0.1-0.1h1c0.1,0,0.1,0,0.1,0.1v3.2v3.2
		C139.6,26,139.6,26,139.5,26z"/>
	<path class="st0" d="M144.3,26.2c-2.2,0-2.9-1.7-2.9-3.5s0.7-3.5,2.9-3.5s2.9,1.7,2.9,3.5C147.2,24.4,146.5,26.2,144.3,26.2z
		 M144.3,19.7c-1.3,0-1.5,1.6-1.5,2.9c0,1.2,0.1,3.2,1.6,3.2c1.3,0,1.5-1.6,1.5-2.9S145.8,19.7,144.3,19.7z"/>
	<path class="st0" d="M154.2,24.2V26c0,0.2-0.6,0.2-0.6,0.1l-3.5-4.8c-0.1-0.1-0.1,0-0.1,0l0.1,4.5c0,0.1,0,0.2-0.1,0.2h-0.8
		c-0.1,0-0.1-0.1-0.1-0.2l0.1-4.7v-1.6c0-0.1,0-0.1,0.1-0.1h0.6c0.1,0,0.2,0,0.2,0.1l3.1,4.3c0.1,0.1,0.2,0.1,0.2,0l-0.1-4.1
		c0-0.1,0-0.2,0.1-0.2h0.7c0.1,0,0.1,0.1,0.1,0.2V24.2z"/>
	<path class="st0" d="M161.7,26h-1.2c-0.1,0-0.2,0-0.2-0.1c0,0-0.2-0.5-0.3-0.8l-0.4-0.9c0-0.1-0.1-0.1-0.1-0.1h-2.1
		c-0.1,0-0.1,0-0.1,0.1l-0.5,1.7c0,0.1-0.1,0.1-0.2,0.1h-0.8c-0.1,0-0.1-0.1-0.1-0.2l2.5-6.4c0-0.1,0.8-0.1,0.8,0l2.3,5.7
		c0.1,0.3,0.4,0.7,0.4,0.7C161.8,26,161.8,26,161.7,26L161.7,26z M158.5,21.1c0-0.1-0.1-0.1-0.1,0l-0.9,2.5c0,0.1,0,0.1,0.1,0.1h1.7
		c0.1,0,0.1-0.1,0.1-0.1L158.5,21.1z"/>
	<path class="st0" d="M167.2,26h-3.8c-0.1,0-0.1,0-0.1-0.1v-3.2v-3.2c0-0.1,0-0.1,0.1-0.1h1c0.1,0,0.1,0,0.1,0.1v3.2v2.5
		c0,0.1,0.1,0.3,0.3,0.3h0.8c0.6,0,1.7-0.2,1.7-0.2c0.1,0,0.2,0,0.2,0.1V26C167.4,26,167.3,26,167.2,26z"/>
	<path class="st0" d="M174.3,26.1c-1,0-1.7-0.2-2.3-0.5c-0.1,0-0.1-0.1-0.1-0.2l0.2-0.7c0-0.1,0.1-0.1,0.2,0c0.5,0.5,1.2,0.9,2,0.9
		c0.6,0,1.3-0.5,1.3-1.1c0-1.7-3.7-1-3.7-3.5c0-1.1,0.8-1.8,2-1.8c1,0,1.8,0.2,2.3,0.2c0.1,0,0.1,0.1,0.1,0.1l-0.2,0.7
		c0,0.1-0.1,0.1-0.2,0.1c-0.5-0.3-1-0.6-2-0.6c-0.5,0-1,0.3-1,0.9c0,1.8,3.7,0.9,3.7,3.7C176.7,25.6,175.7,26.1,174.3,26.1z"/>
	<path class="st0" d="M183.1,20c0,0.1-0.1,0.1-0.1,0.1s-1.1-0.1-1.7-0.1c-0.1,0-0.2,0.1-0.2,0.2v2.6V26c0,0.1,0,0.1-0.1,0.1h-1
		c-0.1,0-0.1,0-0.1-0.1v-3.2v-2.6c0-0.1-0.1-0.2-0.2-0.2c-0.6,0-1.7,0.1-1.7,0.1c-0.1,0-0.1,0-0.1-0.1v-0.5c0-0.1,0.1-0.1,0.2-0.1
		h4.9c0.1,0,0.2,0,0.2,0.1L183.1,20z"/>
	<path class="st0" d="M189.8,20.3l-0.1,3.7c0,1.4-0.8,2.2-2.3,2.2c-1.7,0-2.6-0.7-2.6-2.2v-3.8v-0.7c0-0.1,0-0.1,0.1-0.1h1
		c0.1,0,0.1,0,0.1,0.1v0.7v3.7c0,1,0.7,1.6,1.4,1.6s1.4-0.4,1.4-1.5v-3.7c0-0.3,0-0.8,0-0.8c0-0.1,0-0.2,0.1-0.2h0.9
		c0.1,0,0.1,0.1,0.1,0.2C189.8,19.5,189.8,20,189.8,20.3L189.8,20.3z"/>
	<path class="st0" d="M194,26c-1.2,0-1.3-0.1-1.6-0.1s-0.3,0.1-0.5,0.1c-0.1,0-0.1,0-0.1-0.1v-3.2v-3.2c0-0.1,0-0.1,0.1-0.1h2.4
		c1.4,0,2.7,1.1,2.7,3.2C197,24.4,195.9,26,194,26L194,26z M194,19.8h-0.7c-0.1,0-0.2,0.1-0.2,0.2v2.6v2.3c0,0.4,0.3,0.6,0.8,0.6
		c1.6,0,1.8-1.9,1.8-3.1C195.7,20.5,194.8,19.8,194,19.8L194,19.8z"/>
	<path class="st0" d="M199.9,26h-1c-0.1,0-0.1,0-0.1-0.1v-3.2v-3.2c0-0.1,0-0.1,0.1-0.1h1c0.1,0,0.1,0,0.1,0.1v3.2v3.2
		C200.1,26,200,26,199.9,26z"/>
	<path class="st0" d="M206.4,26h-4.1c-0.1,0-0.1,0-0.1-0.1v-3.2v-3.2c0-0.1,0-0.1,0.1-0.1h4c0.1,0,0.2,0,0.2,0.1V20
		c0,0.1-0.1,0.1-0.2,0.1c0,0-1.2-0.2-1.7-0.2h-0.9c-0.1,0-0.3,0.1-0.3,0.3v2c0,0,0,0.1,0.1,0.1l2-0.1c0.1,0,0.1,0,0.1,0.1v0.5
		c0,0.1-0.1,0.1-0.1,0.1l-2-0.1c0,0-0.1,0-0.1,0.1v2.3c0,0.1,0.1,0.3,0.3,0.3h0.9c0.6,0,1.9-0.2,1.9-0.2c0.1,0,0.2,0,0.2,0.1V26
		C206.6,26,206.5,26,206.4,26L206.4,26z"/>
	<path class="st0" d="M210.4,26.1c-1,0-1.7-0.2-2.3-0.5c-0.1,0-0.1-0.1-0.1-0.2l0.2-0.7c0-0.1,0.1-0.1,0.2,0c0.5,0.5,1.2,0.9,2,0.9
		c0.6,0,1.3-0.5,1.3-1.1c0-1.7-3.7-1-3.7-3.5c0-1.1,0.8-1.8,2-1.8c1,0,1.8,0.2,2.3,0.2c0.1,0,0.1,0.1,0.1,0.1l-0.2,0.7
		c0,0.1-0.1,0.1-0.2,0.1c-0.5-0.3-1-0.6-2-0.6c-0.5,0-1,0.3-1,0.9c0,1.8,3.7,0.9,3.7,3.7C212.8,25.6,211.8,26.1,210.4,26.1z"/>
</g>
</svg>
