<svg viewBox="0 0 63.1 22.5" xmlns="http://www.w3.org/2000/svg"><g fill="#fff"><path d="m16.4.6c.9.1 2 .6 2.5.6.2 0 .5.2.5 1 0 .7.2 2.1.2 2.9 0 .7-.2 1.1-.5 1.1-.2 0-.4-.4-.5-.9a4.832 4.832 0 0 0 -1.4-2.5 7.972 7.972 0 0 0 -5.3-1.7c-5.3 0-8.7 4.4-8.7 9.4a10.8 10.8 0 0 0 1.2 5.4 9.525 9.525 0 0 0 8.4 5.3 7.7 7.7 0 0 0 3.6-.9 7.362 7.362 0 0 0 3.1-3.2c.4-.7.6-.9.7-.9.3 0 .4.7.3 1.1a13.339 13.339 0 0 1 -1.3 3.3c-.1.3-.7.7-1 .9a21.13 21.13 0 0 1 -6 .9 12.541 12.541 0 0 1 -9.4-3.9 10.977 10.977 0 0 1 -2.8-7.6 10.692 10.692 0 0 1 3.6-7.9 13.5 13.5 0 0 1 8.9-3 31 31 0 0 1 3.9.6z"/><path d="m34.5.7c.2.1.4.6.4.6.1.6.3 2.5.3 2.7 0 .6 0 .9-.2.9a.828.828 0 0 1 -.8-.7 5.667 5.667 0 0 0 -1.6-2.4 3.566 3.566 0 0 0 -2.3-.8 3.76 3.76 0 0 0 -3.8 3.9c0 2.3 1.7 3.4 4.6 5.3 2.5 1.7 4.6 3.4 4.6 6.4a5.731 5.731 0 0 1 -2.7 4.7 9.412 9.412 0 0 1 -4.5 1.2 12.713 12.713 0 0 1 -4.3-.9 2.564 2.564 0 0 1 -.8-1.1c-.2-1.1-.5-2.6-.5-3.1 0-.1.3-.6.5-.6.3 0 .8.9 1.2 1.9a5.112 5.112 0 0 0 4.3 2.6 3.833 3.833 0 0 0 4-4c0-1.4-.7-2.9-4.1-5.1-2.8-1.8-4.8-3.7-4.8-6.5a5.366 5.366 0 0 1 1.8-4 7.143 7.143 0 0 1 4.9-1.6 18.722 18.722 0 0 1 3.8.6z"/><path d="m41.6 3.9c-.1-1.5-.1-2-1.9-2.3-.7-.1-.9-.4-.9-.6 0-.3.4-.4.8-.4.9 0 2.5.1 3.6.1 1.6 0 2.4-.1 3.5-.1.5 0 .8.1.8.4s-.3.5-.9.6c-1.9.4-1.9 1.2-2 2.1-.1 1-.1 3.2-.1 9.7 0 1.8 0 3.9.1 4.9.1 1.8.3 2.4 2.4 2.8q.9.15.9.6c0 .3-.5.4-.9.4-1.7 0-4-.2-4.9-.2-1 0-1.3.1-2.5.1-.6 0-.9-.2-.9-.5 0-.2.3-.4 1-.6 1.7-.4 1.8-.9 1.9-2.4.1-1.2.2-4.6.2-7.4-.1-2-.1-6.1-.2-7.2z"/><path d="m61.9.7c.2.1.4.6.4.6.1.6.3 2.5.3 2.7 0 .6 0 .9-.2.9a.828.828 0 0 1 -.8-.7 5.667 5.667 0 0 0 -1.6-2.4 3.566 3.566 0 0 0 -2.3-.8 3.76 3.76 0 0 0 -3.8 3.9c0 2.3 1.7 3.4 4.6 5.3 2.5 1.7 4.6 3.4 4.6 6.4a5.731 5.731 0 0 1 -2.7 4.7 9.412 9.412 0 0 1 -4.5 1.2 12.713 12.713 0 0 1 -4.3-.9 2.564 2.564 0 0 1 -.8-1.1c-.2-1.1-.5-2.6-.5-3.1 0-.1.3-.6.5-.6.3 0 .8.9 1.2 1.9a5.112 5.112 0 0 0 4.3 2.6 3.833 3.833 0 0 0 4-4c0-1.4-.7-2.9-4.1-5.1-2.8-1.8-4.8-3.7-4.8-6.5a5.366 5.366 0 0 1 1.8-4 7.143 7.143 0 0 1 4.9-1.6 18.722 18.722 0 0 1 3.8.6z"/></g></svg>