<?xml version="1.0" encoding="UTF-8"?>
<svg width="281px" height="45px" viewBox="0 0 281 45" version="1.1" xmlns="http://www.w3.org/2000/svg" xmlns:xlink="http://www.w3.org/1999/xlink">
    <!-- Generator: Sketch 54.1 (76490) - https://sketchapp.com -->
    <title>logo-careers</title>
    <desc>Created with Sketch.</desc>
    <g id="icon-inventory" stroke="none" stroke-width="1" fill="none" fill-rule="evenodd">
        <g id="logo-careers">
            <g id="logo-csis" fill="#000000">
                <g id="Group" transform="translate(0.000000, 4.354839)">
                    <path d="M24.5829619,1.48316971 C25.9307817,1.63148668 27.5781169,2.37307153 28.3269057,2.37307153 C28.6264212,2.37307153 29.0756944,2.66970547 29.0756944,3.85624123 C29.0756944,4.89446003 29.3752099,6.97089762 29.3752099,8.15743338 C29.3752099,9.19565217 29.0756944,9.78892006 28.6264212,9.78892006 C28.3269057,9.78892006 28.0273902,9.19565217 27.8776324,8.45406732 C27.4283592,6.67426367 26.5298127,5.33941094 25.7810239,4.74614306 C23.0853844,2.66970547 20.5395026,2.22475456 17.843863,2.22475456 C9.9067022,2.22475456 4.81493863,8.75070126 4.81493863,16.1665498 C4.81493863,19.4295231 5.41396964,22.0992286 6.61203165,24.1756662 C9.30767119,29.8117111 15.1482235,32.0364656 19.1916828,32.0364656 C20.0902293,32.0364656 22.4863534,31.8881487 24.5829619,30.7016129 C26.8293282,29.5150771 28.0273902,28.0319074 29.2254522,25.9554698 C29.8244832,24.9172511 30.1239987,24.6206171 30.2737565,24.6206171 C30.7230297,24.6206171 30.8727875,25.6588359 30.7230297,26.2521038 C30.573272,27.4386396 29.3752099,30.108345 28.7761789,31.1465638 C28.6264212,31.5915147 27.7278747,32.1847826 27.2786014,32.4814165 C26.5298127,32.7780505 22.4863534,33.8162693 18.2931363,33.8162693 C11.254522,33.8162693 6.1627584,30.404979 4.21590762,28.0319074 C2.26905685,25.8071529 0.0226905685,22.3958626 0.0226905685,16.7598177 C0.0226905685,11.1237728 3.31736111,6.67426367 5.41396964,5.042777 C9.60718669,1.63148668 14.249677,0.593267882 18.7424096,0.593267882 C20.3897448,0.741584853 22.6361111,1.03821879 24.5829619,1.48316971 Z" id="Path"></path>
                    <path d="M51.689115,1.63148668 C51.9886305,1.77980365 52.288146,2.5213885 52.288146,2.5213885 C52.4379037,3.41129032 52.7374193,6.22931276 52.7374193,6.5259467 C52.7374193,7.41584853 52.7374193,7.86079944 52.4379037,7.86079944 C51.9886305,7.86079944 51.3895995,7.5641655 51.2398417,6.82258065 C50.6408107,5.042777 49.292991,3.55960729 48.8437177,3.26297335 C47.9451712,2.5213885 46.7471092,2.07643759 45.3992894,2.07643759 C42.1046189,2.07643759 39.7084948,4.59782609 39.7084948,7.86079944 C39.7084948,11.2720898 42.2543766,12.9035764 46.5973514,15.7215989 C50.3412952,18.2429874 53.486208,20.7643759 53.486208,25.213885 C53.486208,27.7352735 52.1383882,30.404979 49.4427487,32.1847826 C47.7954134,33.2230014 44.9500161,33.9645863 42.7036499,33.9645863 C41.0563146,33.9645863 37.7616441,33.3713184 36.2640665,32.6297335 C35.8147933,32.3330996 35.0660045,31.2948808 35.0660045,30.9982468 C34.766489,29.3667602 34.3172158,27.1420056 34.3172158,26.4004208 C34.3172158,26.2521038 34.766489,25.5105189 35.0660045,25.5105189 C35.5152778,25.5105189 36.2640665,26.8453717 36.8630975,28.3285414 C38.2109173,30.9982468 41.3558301,32.1847826 43.3026809,32.1847826 C46.7471092,32.1847826 49.292991,29.8117111 49.292991,26.2521038 C49.292991,24.1756662 48.2446867,21.9509116 43.1529231,18.6879383 C38.9597061,16.0182328 35.964551,13.2002104 35.964551,9.0473352 C35.964551,6.67426367 37.0128553,4.59782609 38.6601906,3.11465638 C40.1577681,1.77980365 42.5538921,0.741584853 45.9983204,0.741584853 C48.2446867,0.741584853 50.9403262,1.48316971 51.689115,1.63148668 Z" id="Path"></path>
                    <path d="M62.3219154,6.37762973 C62.1721576,4.15287518 62.1721576,3.41129032 59.4765181,2.96633941 C58.4282138,2.81802244 58.1286983,2.37307153 58.1286983,2.07643759 C58.1286983,1.63148668 58.7277293,1.48316971 59.3267603,1.48316971 C60.6745801,1.48316971 63.0707041,1.63148668 64.7180394,1.63148668 C67.1141634,1.63148668 68.3122255,1.48316971 69.9595607,1.48316971 C70.7083495,1.48316971 71.1576227,1.63148668 71.1576227,2.07643759 C71.1576227,2.5213885 70.7083495,2.81802244 69.809803,2.96633941 C66.9644057,3.55960729 66.9644057,4.74614306 66.8146479,6.08099579 C66.6648902,7.5641655 66.6648902,10.8271388 66.6648902,20.4677419 C66.6648902,23.1374474 66.6648902,26.2521038 66.8146479,27.7352735 C66.9644057,30.404979 67.2639212,31.2948808 70.408834,31.8881487 C71.3073805,32.0364656 71.7566537,32.3330996 71.7566537,32.7780505 C71.7566537,33.2230014 71.007865,33.3713184 70.408834,33.3713184 C67.8629522,33.3713184 64.4185239,33.0746844 63.0707041,33.0746844 C61.5731266,33.0746844 61.1238534,33.2230014 59.3267603,33.2230014 C58.4282138,33.2230014 57.9789406,32.9263675 57.9789406,32.4814165 C57.9789406,32.1847826 58.4282138,31.8881487 59.4765181,31.5915147 C62.0223999,30.9982468 62.1721576,30.256662 62.3219154,28.0319074 C62.4716731,26.2521038 62.6214309,21.2093268 62.6214309,17.0564516 C62.4716731,14.0901122 62.4716731,8.00911641 62.3219154,6.37762973 Z" id="Path"></path>
                    <path d="M92.722739,1.63148668 C93.0222545,1.77980365 93.32177,2.5213885 93.32177,2.5213885 C93.4715278,3.41129032 93.7710433,6.22931276 93.7710433,6.5259467 C93.7710433,7.41584853 93.7710433,7.86079944 93.4715278,7.86079944 C93.0222545,7.86079944 92.4232235,7.5641655 92.2734658,6.82258065 C91.6744348,5.042777 90.326615,3.55960729 89.8773417,3.26297335 C88.9787952,2.5213885 87.7807332,2.07643759 86.4329134,2.07643759 C83.1382429,2.07643759 80.7421189,4.59782609 80.7421189,7.86079944 C80.7421189,11.2720898 83.2880006,12.9035764 87.6309755,15.7215989 C91.3749193,18.2429874 94.519832,20.7643759 94.519832,25.213885 C94.519832,27.7352735 93.1720123,30.404979 90.4763727,32.1847826 C88.8290375,33.2230014 85.9836402,33.9645863 83.7372739,33.9645863 C82.0899386,33.9645863 78.7952681,33.3713184 77.2976906,32.6297335 C76.8484173,32.3330996 76.0996286,31.2948808 76.0996286,30.9982468 C75.800113,29.3667602 75.3508398,27.1420056 75.3508398,26.4004208 C75.3508398,26.2521038 75.800113,25.5105189 76.0996286,25.5105189 C76.5489018,25.5105189 77.2976906,26.8453717 77.8967216,28.3285414 C79.2445413,30.9982468 82.3894541,32.1847826 84.3363049,32.1847826 C87.7807332,32.1847826 90.326615,29.8117111 90.326615,26.2521038 C90.326615,24.1756662 89.2783107,21.9509116 84.1865472,18.6879383 C79.9933301,16.0182328 76.9981751,13.2002104 76.9981751,9.0473352 C76.9981751,6.67426367 78.0464793,4.59782609 79.6938146,3.11465638 C81.1913921,1.77980365 83.5875161,0.741584853 87.0319444,0.741584853 C89.2783107,0.741584853 91.9739503,1.48316971 92.722739,1.63148668 Z" id="Path"></path>
                </g>
                <path d="M112.54522,44.25 L112.54522,0.75 C112.54522,0.3 112.835659,0 113.271318,0 L113.271318,0 C113.706977,0 113.997416,0.3 113.997416,0.75 L113.997416,0.75 L113.997416,44.25 C113.997416,44.7 113.706977,45 113.271318,45 L113.271318,45 C112.980879,45 112.54522,44.7 112.54522,44.25 L112.54522,44.25 Z" id="Path"></path>
            </g>
            <path d="M158.655463,29.5616698 L160.157237,30.1134962 C159.456409,32.4211338 158.204931,36.1835863 157.303866,37.8390655 C155.90221,38.1902277 151.647184,39.1935484 148.092985,39.1935484 C135.478082,39.1935484 129.971576,30.5148245 129.971576,22.5885911 C129.971576,12.0537239 138.031098,5.08064516 149.394522,5.08064516 C153.449313,5.08064516 156.903393,6.18429791 158.25499,6.43512808 C158.655463,9.244426 159.005877,11.3513994 159.306232,14.1105313 L157.754399,14.4616935 C156.402802,9.04376186 153.249076,6.98695446 148.092985,6.98695446 C139.933345,6.98695446 135.5782,14.0101992 135.5782,21.5852704 C135.5782,30.9161528 140.934528,37.2872391 148.443399,37.2872391 C153.399253,37.2872391 156.102447,34.5281072 158.655463,29.5616698 Z M183.184441,36.4344165 L178.679119,39.0430503 C177.828114,39.0430503 176.776872,38.591556 176.226221,38.0397296 C175.575452,37.3875712 175.225038,36.6852467 175.024802,35.8825901 C173.022436,37.2370731 170.619597,39.0430503 169.217942,39.0430503 C165.563624,39.0430503 163.060667,35.9829222 163.060667,32.8726281 C163.060667,30.3643264 164.362205,28.8593454 167.065399,27.9563567 C170.068947,26.90287 173.773323,25.5483871 174.874624,24.6453985 L174.874624,23.6420778 C174.874624,20.1304554 173.272732,18.123814 170.869893,18.123814 C169.968829,18.123814 169.217942,18.4749763 168.71735,19.0769687 C168.116641,19.7792932 167.666108,20.8829459 167.265635,22.438093 C167.015339,23.3410816 166.464689,23.6922438 165.663743,23.6922438 C164.712619,23.6922438 163.310963,22.6889231 163.310963,21.4849383 C163.310963,20.6822818 163.961732,20.1304554 164.962915,19.3779649 C166.41463,18.3244782 169.768592,16.4181689 172.621963,15.8663425 C174.173796,15.8663425 175.72563,16.3178368 176.826931,17.2208254 C178.679119,18.7258065 179.17971,20.7826139 179.17971,23.4915797 L179.17971,32.6217979 C179.17971,34.8792694 180.030716,35.5815939 180.881721,35.5815939 C181.482431,35.5815939 182.183259,35.3307638 182.68385,35.0799336 L183.184441,36.4344165 Z M174.874624,34.277277 L174.874624,26.4012097 C173.823382,26.9530361 171.770958,27.9061907 170.669657,28.407851 C168.817468,29.3108397 167.766227,30.2138283 167.766227,32.0699715 C167.766227,34.6786053 169.718533,35.8825901 171.220307,35.8825901 C172.421726,35.8825901 173.97356,35.1300996 174.874624,34.277277 Z M192.845855,21.1839421 L192.945974,21.1839421 C194.497807,18.5251423 196.600291,15.8663425 198.903011,15.8663425 C200.70514,15.8663425 201.90656,17.2208254 201.90656,18.4749763 C201.90656,19.6287951 201.205732,20.6822818 200.15449,21.1839421 C199.55378,21.4347723 199.103248,21.3344402 198.802893,21.033444 C198.052006,20.3311195 197.451296,20.0301233 196.600291,20.0301233 C195.398872,20.0301233 193.897097,21.3344402 192.845855,23.99324 L192.845855,33.2237903 C192.845855,36.4845825 193.096151,36.7855787 196.950705,37.086575 L196.950705,38.4410579 L185.03663,38.4410579 L185.03663,37.086575 C188.090237,36.7855787 188.440651,36.4845825 188.440651,33.2237903 L188.440651,22.7390892 C188.440651,19.528463 188.190355,19.3779649 185.437103,18.9264706 L185.437103,17.7726518 C187.990119,17.3713235 190.292839,16.7693311 192.845855,15.7660104 L192.845855,21.1839421 Z M221.479683,32.9729602 L222.280629,34.0766129 C219.126904,38.1400617 215.622764,39.0430503 213.970812,39.0430503 C207.71342,39.0430503 204.109162,34.0264469 204.109162,28.357685 C204.109162,24.8460626 205.410699,21.7357685 207.463124,19.528463 C209.565608,17.2208254 212.268802,15.8663425 214.871877,15.8663425 C219.126904,15.8663425 222.530925,19.6287951 222.480866,23.5919118 C222.480866,24.5952324 222.280629,25.0467268 221.279447,25.2473909 C220.4785,25.347723 214.221108,25.8493833 208.414248,26.0500474 C208.514366,32.6217979 212.268802,35.4310958 215.772941,35.4310958 C217.775307,35.4310958 219.677554,34.6284393 221.479683,32.9729602 Z M213.720517,17.7224858 C211.517914,17.7224858 209.365371,19.8796252 208.714603,23.943074 C211.367737,23.943074 213.970812,23.892908 216.724065,23.7925759 C217.57507,23.7925759 217.875425,23.5417457 217.875425,22.7892552 C217.925484,20.1806214 216.323592,17.7224858 213.720517,17.7224858 Z M242.854936,32.9729602 L243.655882,34.0766129 C240.502156,38.1400617 236.998016,39.0430503 235.346065,39.0430503 C229.088672,39.0430503 225.484414,34.0264469 225.484414,28.357685 C225.484414,24.8460626 226.785952,21.7357685 228.838377,19.528463 C230.940861,17.2208254 233.644054,15.8663425 236.247129,15.8663425 C240.502156,15.8663425 243.906178,19.6287951 243.856119,23.5919118 C243.856119,24.5952324 243.655882,25.0467268 242.654699,25.2473909 C241.853753,25.347723 235.596361,25.8493833 229.7895,26.0500474 C229.889619,32.6217979 233.644054,35.4310958 237.148194,35.4310958 C239.150559,35.4310958 241.052807,34.6284393 242.854936,32.9729602 Z M235.095769,17.7224858 C232.893167,17.7224858 230.740624,19.8796252 230.089855,23.943074 C232.74299,23.943074 235.346065,23.892908 238.099317,23.7925759 C238.950323,23.7925759 239.250678,23.5417457 239.250678,22.7892552 C239.300737,20.1806214 237.698844,17.7224858 235.095769,17.7224858 Z M254.468656,21.1839421 L254.568774,21.1839421 C256.120608,18.5251423 258.223092,15.8663425 260.525812,15.8663425 C262.327941,15.8663425 263.52936,17.2208254 263.52936,18.4749763 C263.52936,19.6287951 262.828532,20.6822818 261.77729,21.1839421 C261.176581,21.4347723 260.726049,21.3344402 260.425694,21.033444 C259.674807,20.3311195 259.074097,20.0301233 258.223092,20.0301233 C257.021672,20.0301233 255.519898,21.3344402 254.468656,23.99324 L254.468656,33.2237903 C254.468656,36.4845825 254.718952,36.7855787 258.573506,37.086575 L258.573506,38.4410579 L246.65943,38.4410579 L246.65943,37.086575 C249.713038,36.7855787 250.063452,36.4845825 250.063452,33.2237903 L250.063452,22.7390892 C250.063452,19.528463 249.813156,19.3779649 247.059903,18.9264706 L247.059903,17.7726518 C249.61292,17.3713235 251.91564,16.7693311 254.468656,15.7660104 L254.468656,21.1839421 Z M280.098935,22.1370968 L278.747339,22.488259 C277.746156,19.528463 276.044145,17.5218216 273.591247,17.5218216 C271.789118,17.5218216 270.487581,18.9264706 270.487581,20.8327799 C270.487581,22.9397533 272.28971,24.0935721 274.59243,25.0968928 C278.446984,26.7022059 281,28.4580171 281,32.0198055 C281,36.6852467 276.694914,39.0430503 272.640124,39.0430503 C270.037048,39.0430503 267.684269,38.0898956 266.783204,37.3374051 C266.43279,36.6350806 265.982258,33.1736243 265.932199,31.267315 L267.333855,31.0666509 C268.234919,34.3274431 270.487581,37.3374051 273.541188,37.3374051 C275.343317,37.3374051 276.94521,35.9829222 276.94521,33.9762808 C276.94521,31.8693074 275.643672,30.7154886 273.040597,29.4613378 C270.137167,28.1068548 266.683086,26.4012097 266.683086,22.488259 C266.683086,18.8763046 269.736694,15.8663425 274.442253,15.8663425 C276.594796,15.8663425 277.946392,16.3178368 278.997634,16.7693311 C279.398108,17.8729839 279.948758,20.983278 280.098935,22.1370968 Z" id="Careers" fill="#0065A4"></path>
        </g>
    </g>
</svg>